<svg width="861" height="121" viewBox="0 0 861 121" fill="none" xmlns="http://www.w3.org/2000/svg">
<g clip-path="url(#clip0_4798_620)">
<path d="M258.186 16.4871C251.036 9.31027 241.915 4.45038 231.997 2.53315C222.078 0.615921 211.816 1.72913 202.532 5.72946C193.248 9.72979 185.367 16.4341 179.904 24.9792C174.44 33.5242 171.645 43.5189 171.876 53.6762C172.108 63.8336 175.357 73.6886 181.205 81.9725C187.053 90.2563 195.232 96.5897 204.689 100.157C214.146 103.725 224.447 104.364 234.268 101.99C244.088 99.6173 252.977 94.3414 259.791 86.8421L247.612 75.6434C243.021 80.6966 237.031 84.2516 230.414 85.8506C223.796 87.4496 216.854 87.0194 210.483 84.6154C204.11 82.2116 198.599 77.9439 194.659 72.362C190.718 66.7802 188.529 60.1395 188.373 53.2953C188.217 46.451 190.1 39.7163 193.782 33.9585C197.463 28.2006 202.773 23.683 209.029 20.9875C215.285 18.292 222.2 17.5419 228.883 18.8338C235.567 20.1257 241.713 23.4004 246.53 28.2363C246.53 28.2363 253.453 28.6876 256.05 26.0687C258.648 23.4498 258.186 16.4871 258.186 16.4871Z" fill="white"/>
<path d="M517.393 65.7096C518.618 76.2184 523.654 85.9032 531.537 92.9086C539.42 99.9142 549.595 103.747 560.113 103.675C570.631 103.603 580.752 99.6296 588.538 92.5156C596.325 85.4021 601.228 75.6489 602.31 65.1241L585.174 63.3418C584.529 69.6221 581.603 75.442 576.957 79.6866C572.31 83.9314 566.27 86.3024 559.994 86.3457C553.718 86.389 547.647 84.1014 542.943 79.9212C538.239 75.7409 535.234 69.9619 534.503 63.6912L517.393 65.7096Z" fill="white"/>
<path d="M753.595 18.3534C758.076 18.3488 761.705 14.6909 761.7 10.1834C761.695 5.67589 758.059 2.02556 753.578 2.03019C749.097 2.03482 745.469 5.69265 745.473 10.2002C745.478 14.7077 749.114 18.358 753.595 18.3534Z" fill="#F8C45E"/>
<path d="M647.646 18.463C652.127 18.4584 655.755 14.8006 655.751 10.293C655.746 5.78551 652.11 2.13518 647.629 2.13981C643.148 2.14444 639.519 5.80227 639.524 10.3098C639.529 14.8173 643.165 18.4677 647.646 18.463Z" fill="#F8C45E"/>
<path d="M593.24 18.5192C597.72 18.5145 601.349 14.8567 601.344 10.3492C601.34 5.84166 597.704 2.19133 593.223 2.19596C588.742 2.20059 585.113 5.85842 585.118 10.366C585.122 14.8735 588.759 18.5238 593.24 18.5192Z" fill="#F8C45E"/>
<path d="M475.835 18.6405C480.316 18.6359 483.945 14.9781 483.94 10.4705C483.935 5.963 480.299 2.31267 475.818 2.3173C471.338 2.32193 467.709 5.97976 467.714 10.4873C467.718 14.9948 471.354 18.6451 475.835 18.6405Z" fill="#F8C45E"/>
<path d="M354.615 18.7658C359.095 18.7611 362.724 15.1033 362.719 10.5958C362.715 6.08824 359.079 2.43792 354.598 2.44255C350.117 2.44717 346.488 6.105 346.493 10.6125C346.497 15.1201 350.134 18.7704 354.615 18.7658Z" fill="#F8C45E"/>
<path d="M225.806 65.9474C230.287 65.9428 233.916 62.2849 233.911 57.7774C233.906 53.2699 230.27 49.6196 225.789 49.6242C221.308 49.6288 217.68 53.2866 217.684 57.7942C217.689 62.3017 221.325 65.952 225.806 65.9474Z" fill="#F8C45E"/>
<path d="M851.908 18.2518C856.388 18.2472 860.017 14.5894 860.012 10.0819C860.008 5.57432 856.372 1.924 851.891 1.92863C847.41 1.93326 843.781 5.59109 843.786 10.0986C843.79 14.6061 847.427 18.2565 851.908 18.2518Z" fill="#F8C45E"/>
<path d="M724.475 11.6621L724.846 93.97" stroke="white" stroke-width="18" stroke-linecap="round"/>
<path d="M724.76 9.74156L691.066 9.77637" stroke="white" stroke-width="18" stroke-linecap="round"/>
<path d="M820.918 48.0493L820.966 94.1384" stroke="white" stroke-width="18" stroke-linecap="round"/>
<path d="M821.209 53.7606L793.197 9.67065" stroke="white" stroke-width="18" stroke-linecap="round"/>
<path d="M821.208 53.7604L835.22 33.6317" stroke="white" stroke-width="18" stroke-linecap="round"/>
<path d="M476.328 34.0027L476.392 95.4548" stroke="white" stroke-width="18" stroke-linecap="round"/>
<path d="M408.535 10.0681L476.008 94.7321" stroke="white" stroke-width="18" stroke-linecap="round"/>
<path d="M408.535 10.0681L408.623 94.8017" stroke="white" stroke-width="18" stroke-linecap="round"/>
<path d="M133.171 18.9945C137.652 18.9899 141.281 15.3321 141.276 10.8245C141.271 6.317 137.635 2.66668 133.154 2.67131C128.673 2.67593 125.045 6.33376 125.049 10.8413C125.054 15.3488 128.69 18.9991 133.171 18.9945Z" fill="#F8C45E"/>
<path d="M133.664 34.3567L133.728 95.8088" stroke="white" stroke-width="18" stroke-linecap="round"/>
<path d="M65.8711 10.4221L133.344 95.0861" stroke="white" stroke-width="18" stroke-linecap="round"/>
<path d="M65.8711 10.4221L65.9584 94.9187" stroke="white" stroke-width="18" stroke-linecap="round"/>
<path d="M306.404 10.1736L306.492 94.6702" stroke="white" stroke-width="18" stroke-linecap="round"/>
<path d="M355.17 94.6191L306.49 94.6694" stroke="white" stroke-width="18" stroke-linecap="round"/>
<path d="M355.123 49.4907L306.443 49.541" stroke="white" stroke-width="18" stroke-linecap="round"/>
<path d="M325.494 10.1539L306.404 10.1736" stroke="white" stroke-width="18" stroke-linecap="round"/>
<path d="M648.139 33.8252L648.202 95.2773" stroke="white" stroke-width="18" stroke-linecap="round"/>
<path d="M8.13214 19.1237C12.613 19.119 16.2417 15.4612 16.237 10.9537C16.2324 6.44615 12.5961 2.79583 8.11527 2.80046C3.63441 2.80509 0.00572829 6.46291 0.0103852 10.9704C0.0150421 15.478 3.65127 19.1283 8.13214 19.1237Z" fill="#F8C45E"/>
<path d="M8.625 34.4858L8.6885 95.9379" stroke="white" stroke-width="18" stroke-linecap="round"/>
<path d="M253.957 59.197L253.98 81.2814" stroke="white" stroke-width="17" stroke-linecap="round"/>
<path d="M525.938 9.94678L525.994 64.6776" stroke="white" stroke-width="18" stroke-linecap="round"/>
<path d="M593 38L593.031 67.7659" stroke="white" stroke-width="18" stroke-linecap="round"/>
</g>
<defs>
<clipPath id="clip0_4798_620">
<rect width="860.003" height="120.022" fill="white" transform="translate(0 0.888428) rotate(-0.0591944)"/>
</clipPath>
</defs>
</svg>
